<?xml version="1.0" encoding="UTF-8"?>
<svg version="1.1" xmlns="http://www.w3.org/2000/svg" width="64" height="64">
<path d="M0 0 C0.82741699 0.01047363 1.65483398 0.02094727 2.50732422 0.03173828 C3.40322266 0.03818359 4.29912109 0.04462891 5.22216797 0.05126953 C6.62789062 0.07640625 6.62789062 0.07640625 8.06201172 0.10205078 C9.00689453 0.11107422 9.95177734 0.12009766 10.92529297 0.12939453 C13.26278464 0.15300556 15.59977295 0.18593562 17.93701172 0.22705078 C17.93701172 2.86705078 17.93701172 5.50705078 17.93701172 8.22705078 C13.31701172 8.22705078 8.69701172 8.22705078 3.93701172 8.22705078 C3.93701172 16.80705078 3.93701172 25.38705078 3.93701172 34.22705078 C12.51701172 34.22705078 21.09701172 34.22705078 29.93701172 34.22705078 C29.93701172 29.60705078 29.93701172 24.98705078 29.93701172 20.22705078 C32.57701172 20.22705078 35.21701172 20.22705078 37.93701172 20.22705078 C37.99491525 23.51864394 38.03057433 26.81010681 38.06201172 30.10205078 C38.07876953 31.03919922 38.09552734 31.97634766 38.11279297 32.94189453 C38.12246094 34.28574219 38.12246094 34.28574219 38.13232422 35.65673828 C38.14803467 36.89786377 38.14803467 36.89786377 38.1640625 38.1640625 C37.93701172 40.22705078 37.93701172 40.22705078 35.93701172 42.22705078 C33.0916103 42.42695306 30.34563388 42.50682054 27.49951172 42.49267578 C26.66363525 42.49458923 25.82775879 42.49650269 24.96655273 42.49847412 C23.19791361 42.49983614 21.42926449 42.49613854 19.66064453 42.48779297 C16.94785178 42.47709354 14.23572128 42.48768754 11.52294922 42.50048828 C9.80680192 42.49916669 8.09065503 42.4966043 6.37451172 42.49267578 C5.55990479 42.49672424 4.74529785 42.50077271 3.90600586 42.50494385 C-1.833069 42.45697006 -1.833069 42.45697006 -4.06298828 40.22705078 C-4.26289056 37.38164936 -4.34275804 34.63567294 -4.32861328 31.78955078 C-4.33052673 30.95367432 -4.33244019 30.11779785 -4.33441162 29.2565918 C-4.33577364 27.48795267 -4.33207604 25.71930356 -4.32373047 23.95068359 C-4.31303104 21.23789085 -4.32362504 18.52576034 -4.33642578 15.81298828 C-4.33510419 14.09684098 -4.3325418 12.38069409 -4.32861328 10.66455078 C-4.33266174 9.84994385 -4.33671021 9.03533691 -4.34088135 8.19604492 C-4.27630359 0.47064643 -4.27630359 0.47064643 0 0 Z M-0.76147461 3.29614258 C-2.76496056 6.26848743 -2.4522307 8.86612459 -2.46142578 12.41455078 C-2.46429596 13.11346436 -2.46716614 13.81237793 -2.47012329 14.5324707 C-2.47216254 16.00847179 -2.46664231 17.4845 -2.45410156 18.96044922 C-2.43804408 21.21920216 -2.45395299 23.47616596 -2.47314453 25.73486328 C-2.47116207 27.16976306 -2.46731834 28.60466173 -2.46142578 30.03955078 C-2.45804199 31.34537109 -2.4546582 32.65119141 -2.45117188 33.99658203 C-2.28375237 37.11850407 -2.28375237 37.11850407 -0.98730469 39.15136719 C2.02222074 40.83367739 4.70222664 40.61662007 8.12451172 40.62548828 C9.17288208 40.62979355 9.17288208 40.62979355 10.24243164 40.63418579 C11.71843273 40.63622504 13.19446093 40.63070481 14.67041016 40.61816406 C16.9291631 40.60210658 19.1861269 40.61801549 21.44482422 40.63720703 C22.879724 40.63522457 24.31462267 40.63138084 25.74951172 40.62548828 C27.70824219 40.6204126 27.70824219 40.6204126 29.70654297 40.61523438 C32.87266705 40.48384625 32.87266705 40.48384625 34.86791992 38.92553711 C36.68444109 36.03959563 36.24439607 32.8317594 36.12451172 29.53955078 C36.11097656 28.83765625 36.09744141 28.13576172 36.08349609 27.41259766 C36.04821354 25.68375249 35.99440755 23.95530313 35.93701172 22.22705078 C34.61701172 22.22705078 33.29701172 22.22705078 31.93701172 22.22705078 C31.93701172 26.84705078 31.93701172 31.46705078 31.93701172 36.22705078 C22.03701172 36.22705078 12.13701172 36.22705078 1.93701172 36.22705078 C1.93701172 26.32705078 1.93701172 16.42705078 1.93701172 6.22705078 C6.55701172 6.22705078 11.17701172 6.22705078 15.93701172 6.22705078 C15.93701172 4.90705078 15.93701172 3.58705078 15.93701172 2.22705078 C13.49884587 2.14607848 11.06336788 2.08658107 8.62451172 2.03955078 C7.93421875 2.01441406 7.24392578 1.98927734 6.53271484 1.96337891 C2.70084092 1.86791097 2.70084092 1.86791097 -0.76147461 3.29614258 Z " fill="#853EFF" transform="translate(12.06298828125,13.77294921875)"/>
<path d="M0 0 C3.3 0 6.6 0 10 0 C10 3.3 10 6.6 10 10 C9.34 10 8.68 10 8 10 C7.67 8.68 7.34 7.36 7 6 C4.25584905 8.26118038 3.10589714 9.47594492 2.390625 13.015625 C2.32101563 14.61664063 2.32101563 14.61664063 2.25 16.25 C2.1675 18.1475 2.085 20.045 2 22 C-2.62 22 -7.24 22 -12 22 C-12 17.38 -12 12.76 -12 8 C-9.00520833 7.86979167 -6.01041667 7.73958333 -3.015625 7.609375 C0.52405508 6.89410286 1.73881962 5.74415095 4 3 C2.68 2.67 1.36 2.34 0 2 C0 1.34 0 0.68 0 0 Z M-10 10 C-10 13.3 -10 16.6 -10 20 C-6.7 20 -3.4 20 0 20 C0 16.7 0 13.4 0 10 C-3.3 10 -6.6 10 -10 10 Z " fill="#694AFF" transform="translate(34,20)"/>
<path d="M0 0 C2.95857409 -0.05379226 5.91617721 -0.09357093 8.875 -0.125 C9.71675781 -0.14175781 10.55851562 -0.15851562 11.42578125 -0.17578125 C12.23144531 -0.18222656 13.03710938 -0.18867187 13.8671875 -0.1953125 C14.98262939 -0.21102295 14.98262939 -0.21102295 16.12060547 -0.22705078 C18 0 18 0 20 2 C20.22705078 3.87939453 20.22705078 3.87939453 20.1953125 6.1328125 C20.18886719 6.93847656 20.18242188 7.74414062 20.17578125 8.57421875 C20.15902344 9.41597656 20.14226563 10.25773437 20.125 11.125 C20.11597656 11.97449219 20.10695313 12.82398438 20.09765625 13.69921875 C20.07405647 15.79959884 20.03818483 17.89983444 20 20 C17.36 20 14.72 20 12 20 C12 16.04 12 12.08 12 8 C8.04 8 4.08 8 0 8 C0 5.36 0 2.72 0 0 Z M2 2 C2 3.32 2 4.64 2 6 C5.96 6 9.92 6 14 6 C14 9.96 14 13.92 14 18 C15.32 18 16.64 18 18 18 C18.0810206 15.89646505 18.13919907 13.79204048 18.1875 11.6875 C18.22230469 10.51574219 18.25710937 9.34398437 18.29296875 8.13671875 C18.22724401 5.09071778 18.22724401 5.09071778 16.90625 3.09375 C14.0320761 1.44463383 11.58995764 1.71514977 8.3125 1.8125 C7.13300781 1.83957031 5.95351563 1.86664063 4.73828125 1.89453125 C3.38283203 1.94673828 3.38283203 1.94673828 2 2 Z " fill="#3760FF" transform="translate(36,8)"/>
<path d="M0 0 C1.98 0 3.96 0 6 0 C6 1.98 6 3.96 6 6 C4.02 6 2.04 6 0 6 C0 4.02 0 2.04 0 0 Z " fill="#A9B8FF" transform="translate(26,32)"/>
</svg>
